# xmcd
#
# Track frame offsets:
#	150
#	11557
#	35305
#	47239
#	63757
#	76647
#	87042
#	103302
#	123782
#	135082
#	151050
#	165267
#	180067
#	190435
#
# Disc length: 2710 seconds
#
# Revision: 1
# Processed by: cddbd v1.5.1PL2 Copyright (c) Steve Scherf et al.
# Submitted via: EasyCDDAExtractor 6.5.7.1
#
DISCID=900a940e
DTITLE=Various Artist - Isto é Gauchada Tchê!
DYEAR=1900
DGENRE=Gaúcha
TTITLE0=Os Farrapos - Unha Encravada
TTITLE1=Pedro Ortaça - Finado Trançudo
TTITLE2=Moraezinho - Agarrado na cola
TTITLE3=Quero-Quero - Sogra Gaudéria
TTITLE4=Alecrim Canto - Pica Pau papo amarelo
TTITLE5=Os Nativos - Bufo de Gaita
TTITLE6=Fagundaço - Trova do Alegrete
TTITLE7=Francisco Vargas - Cuiudo do Alegrete
TTITLE8=Velho Milongueiro - Ripa de Costela
TTITLE9=Os Fronteiriços - Os zóio da véia
TTITLE10=Leonardo - Teje preso
TTITLE11=Os Mateadores - Casamento de grosso
TTITLE12=Os Peões de Estância - Guasqueiro
TTITLE13=Xirú do Sul - Surungo do bixo de pé
EXTD=
EXTT0=
EXTT1=
EXTT2=
EXTT3=
EXTT4=
EXTT5=
EXTT6=
EXTT7=
EXTT8=
EXTT9=
EXTT10=
EXTT11=
EXTT12=
EXTT13=
PLAYORDER=
